<svg width="100%" height="100%" viewBox="0 0 220 61" version="1.1" xmlns="http://www.w3.org/2000/svg" xmlns:xlink="http://www.w3.org/1999/xlink" xml:space="preserve" xmlns:serif="http://www.serif.com/" style="fill-rule:evenodd;clip-rule:evenodd;stroke-linejoin:round;stroke-miterlimit:2;">
    <g transform="matrix(1,0,0,1,-630.074,-420.003)">
        <g transform="matrix(1,0,0,1,208.075,138.172)">
            <g transform="matrix(50,0,0,50,481.129,328.387)">
                <path d="M0.338,0.004C0.285,0.004 0.237,-0.008 0.196,-0.033C0.154,-0.057 0.121,-0.09 0.098,-0.132C0.074,-0.173 0.062,-0.22 0.062,-0.273C0.062,-0.327 0.074,-0.375 0.097,-0.417C0.12,-0.459 0.152,-0.492 0.193,-0.516C0.234,-0.539 0.28,-0.551 0.333,-0.551C0.372,-0.551 0.408,-0.544 0.441,-0.529C0.474,-0.514 0.503,-0.491 0.529,-0.461C0.538,-0.45 0.542,-0.439 0.539,-0.428C0.536,-0.417 0.529,-0.407 0.517,-0.398C0.508,-0.391 0.497,-0.389 0.486,-0.392C0.475,-0.394 0.464,-0.4 0.455,-0.409C0.422,-0.444 0.382,-0.461 0.333,-0.461C0.299,-0.461 0.269,-0.453 0.243,-0.438C0.217,-0.422 0.197,-0.4 0.182,-0.372C0.167,-0.344 0.16,-0.311 0.16,-0.273C0.16,-0.237 0.168,-0.205 0.183,-0.177C0.198,-0.149 0.218,-0.127 0.245,-0.111C0.272,-0.094 0.303,-0.086 0.338,-0.086C0.361,-0.086 0.382,-0.089 0.4,-0.095C0.417,-0.1 0.433,-0.109 0.448,-0.121C0.459,-0.13 0.47,-0.135 0.481,-0.136C0.492,-0.137 0.502,-0.133 0.511,-0.126C0.522,-0.117 0.529,-0.106 0.53,-0.095C0.531,-0.083 0.527,-0.072 0.518,-0.063C0.47,-0.018 0.41,0.004 0.338,0.004Z" style="fill:white;fill-rule:nonzero;" />
            </g>
            <g transform="matrix(50,0,0,50,511.179,328.387)">
                <path d="M0.32,0.005C0.274,0.005 0.233,-0.005 0.197,-0.025C0.16,-0.044 0.132,-0.073 0.111,-0.111C0.09,-0.149 0.079,-0.196 0.079,-0.251L0.079,-0.497C0.079,-0.512 0.084,-0.524 0.094,-0.534C0.103,-0.543 0.115,-0.548 0.13,-0.548C0.145,-0.548 0.157,-0.543 0.167,-0.534C0.176,-0.524 0.181,-0.512 0.181,-0.497L0.181,-0.251C0.181,-0.214 0.188,-0.183 0.202,-0.159C0.216,-0.134 0.235,-0.116 0.259,-0.105C0.283,-0.093 0.31,-0.087 0.34,-0.087C0.369,-0.087 0.394,-0.093 0.417,-0.104C0.439,-0.115 0.457,-0.131 0.47,-0.15C0.483,-0.169 0.49,-0.191 0.49,-0.215L0.553,-0.215C0.553,-0.174 0.543,-0.136 0.523,-0.103C0.502,-0.07 0.474,-0.043 0.44,-0.024C0.405,-0.005 0.365,0.005 0.32,0.005ZM0.541,-0C0.526,-0 0.514,-0.005 0.504,-0.015C0.495,-0.024 0.49,-0.036 0.49,-0.051L0.49,-0.497C0.49,-0.512 0.495,-0.525 0.504,-0.534C0.514,-0.543 0.526,-0.548 0.541,-0.548C0.556,-0.548 0.569,-0.543 0.578,-0.534C0.587,-0.525 0.592,-0.512 0.592,-0.497L0.592,-0.051C0.592,-0.036 0.587,-0.024 0.578,-0.015C0.569,-0.005 0.556,-0 0.541,-0Z" style="fill:white;fill-rule:nonzero;" />
            </g>
            <g transform="matrix(50,0,0,50,545.279,328.387)">
                <path d="M0.365,0.004C0.313,0.004 0.266,-0.008 0.225,-0.033C0.184,-0.057 0.151,-0.09 0.127,-0.132C0.103,-0.174 0.091,-0.221 0.09,-0.274L0.09,-0.73C0.09,-0.745 0.095,-0.758 0.105,-0.767C0.114,-0.776 0.126,-0.781 0.141,-0.781C0.156,-0.781 0.169,-0.776 0.178,-0.767C0.187,-0.758 0.192,-0.745 0.192,-0.73L0.192,-0.46C0.215,-0.488 0.244,-0.51 0.277,-0.527C0.31,-0.543 0.346,-0.551 0.385,-0.551C0.434,-0.551 0.477,-0.539 0.516,-0.515C0.555,-0.49 0.585,-0.457 0.608,-0.416C0.63,-0.374 0.641,-0.327 0.641,-0.274C0.641,-0.221 0.629,-0.174 0.605,-0.132C0.58,-0.09 0.547,-0.057 0.506,-0.033C0.465,-0.008 0.418,0.004 0.365,0.004ZM0.365,-0.086C0.399,-0.086 0.429,-0.094 0.456,-0.111C0.483,-0.127 0.504,-0.149 0.52,-0.178C0.535,-0.207 0.543,-0.239 0.543,-0.274C0.543,-0.31 0.535,-0.342 0.52,-0.37C0.504,-0.398 0.483,-0.42 0.456,-0.437C0.429,-0.453 0.399,-0.461 0.365,-0.461C0.332,-0.461 0.302,-0.453 0.275,-0.437C0.248,-0.42 0.226,-0.398 0.211,-0.37C0.196,-0.342 0.188,-0.31 0.188,-0.274C0.188,-0.239 0.196,-0.207 0.211,-0.178C0.226,-0.149 0.248,-0.127 0.275,-0.111C0.302,-0.094 0.332,-0.086 0.365,-0.086Z" style="fill:white;fill-rule:nonzero;" />
            </g>
            <g transform="matrix(50,0,0,50,580.429,328.387)">
                <path d="M0.347,0.004C0.292,0.004 0.243,-0.008 0.2,-0.032C0.157,-0.055 0.123,-0.088 0.099,-0.13C0.074,-0.171 0.062,-0.219 0.062,-0.273C0.062,-0.328 0.074,-0.376 0.097,-0.418C0.119,-0.459 0.151,-0.492 0.192,-0.516C0.233,-0.539 0.279,-0.551 0.332,-0.551C0.384,-0.551 0.429,-0.54 0.466,-0.517C0.503,-0.494 0.532,-0.462 0.552,-0.422C0.571,-0.381 0.581,-0.335 0.581,-0.282C0.581,-0.269 0.577,-0.259 0.568,-0.251C0.559,-0.242 0.548,-0.238 0.535,-0.238L0.132,-0.238L0.132,-0.318L0.532,-0.318L0.491,-0.29C0.49,-0.323 0.484,-0.353 0.471,-0.38C0.458,-0.406 0.44,-0.427 0.417,-0.442C0.394,-0.457 0.365,-0.465 0.332,-0.465C0.294,-0.465 0.262,-0.457 0.234,-0.44C0.207,-0.423 0.187,-0.401 0.173,-0.372C0.159,-0.343 0.152,-0.31 0.152,-0.273C0.152,-0.236 0.16,-0.204 0.177,-0.175C0.194,-0.146 0.217,-0.124 0.246,-0.107C0.275,-0.09 0.309,-0.082 0.347,-0.082C0.368,-0.082 0.389,-0.086 0.41,-0.094C0.432,-0.101 0.45,-0.11 0.463,-0.12C0.473,-0.127 0.484,-0.131 0.496,-0.132C0.507,-0.132 0.517,-0.128 0.526,-0.121C0.537,-0.111 0.543,-0.1 0.544,-0.088C0.545,-0.076 0.539,-0.066 0.528,-0.057C0.505,-0.039 0.477,-0.024 0.444,-0.013C0.41,-0.002 0.378,0.004 0.347,0.004Z" style="fill:white;fill-rule:nonzero;" />
            </g>
            <g transform="matrix(50,0,0,50,610.479,328.387)">
                <path d="M0.318,0.004C0.269,0.004 0.226,-0.008 0.187,-0.033C0.148,-0.057 0.118,-0.09 0.096,-0.132C0.073,-0.173 0.062,-0.22 0.062,-0.273C0.062,-0.326 0.074,-0.373 0.099,-0.415C0.123,-0.457 0.156,-0.49 0.198,-0.515C0.239,-0.539 0.286,-0.551 0.338,-0.551C0.39,-0.551 0.437,-0.539 0.478,-0.515C0.519,-0.49 0.552,-0.457 0.577,-0.415C0.601,-0.373 0.613,-0.326 0.613,-0.273L0.574,-0.273C0.574,-0.22 0.563,-0.173 0.541,-0.132C0.518,-0.09 0.488,-0.057 0.449,-0.033C0.41,-0.008 0.367,0.004 0.318,0.004ZM0.338,-0.086C0.372,-0.086 0.402,-0.094 0.429,-0.111C0.456,-0.127 0.477,-0.149 0.492,-0.178C0.507,-0.206 0.515,-0.238 0.515,-0.273C0.515,-0.309 0.507,-0.341 0.492,-0.37C0.477,-0.398 0.456,-0.42 0.429,-0.437C0.402,-0.453 0.372,-0.461 0.338,-0.461C0.305,-0.461 0.275,-0.453 0.248,-0.437C0.221,-0.42 0.199,-0.398 0.184,-0.37C0.168,-0.341 0.16,-0.309 0.16,-0.273C0.16,-0.238 0.168,-0.206 0.184,-0.178C0.199,-0.149 0.221,-0.127 0.248,-0.111C0.275,-0.094 0.305,-0.086 0.338,-0.086ZM0.562,0.001C0.547,0.001 0.535,-0.004 0.526,-0.014C0.516,-0.023 0.511,-0.035 0.511,-0.05L0.511,-0.203L0.53,-0.309L0.613,-0.273L0.613,-0.05C0.613,-0.035 0.608,-0.023 0.599,-0.014C0.589,-0.004 0.577,0.001 0.562,0.001Z" style="fill:white;fill-rule:nonzero;" />
            </g>
        </g>
        <g transform="matrix(0.330837,0,0,0.330837,-274.599,172.183)">
            <g transform="matrix(0.0933326,0,0,0.0933326,2734.5,749.071)">
                <g>
                    <path d="M845.764,0L845.764,1953.21L0,1464.91L0,488.302L845.764,-0Z" style="fill:rgb(217,217,217);" />
                    <path d="M1334.17,1258.58L845.764,1540.56L845.766,1953.21L1691.53,1464.91L1334.17,1258.58Z" style="fill:rgb(234,234,234);" />
                    <path d="M845.764,0L0,488.302L845.764,976.604L1691.53,488.302L845.764,0Z" style="fill:white;" />
                </g>
                <g>
                    <path d="M845.764,1540.56L357.362,1258.58L357.362,694.623L845.764,412.645L1334.17,694.623L1334.17,1258.58L845.764,1540.56Z" style="fill:rgb(111,111,111);" />
                    <path d="M357.362,1258.58L845.764,1540.56L845.764,412.649L357.362,694.627L357.362,1258.59L357.362,1258.58Z" style="fill:rgb(121,121,121);" />
                    <path d="M845.764,1540.56L1334.17,1258.58L845.764,976.602L357.362,1258.58L845.764,1540.56Z" style="fill:rgb(129,129,129);" />
                </g>
            </g>
        </g>
    </g>
</svg>